PathFileType	4	(X/Y/Z)	/Users/itak/Documents/Research/Walk-IL/dataset/trc/00206_00008.trc
DataRate	CameraRate	NumFrames	NumMarkers	Units	OrigDataRate	OrigDataStartFrame	OrigNumFrames
100.000000	100.000000	4	53	mm	100.000000	0	582
Frame#	Time	RPSI			LPSI			L3			STRN			T10			C7			CLAV			RBAK			LBAK			LSHO			LUPA			LAEL			LAOL			LWTS			LWPS			LFRA			LIFD			LHPS			LHTS			RSHO			RUPA			RAEL			RAOL			RWTS			RWPS			RFRA			RIFD			RHTS			RHPS			RBHD			LFHD			RFHD			LBHD			LHIP			RHIP			RASI			LASI			LKNE			LTHI			LANK			LTIP			LTOE			LMT1			LMT5			LHEE			RKNE			RTHI			RANK			RTIP			RTOE			RMT1			RMT5			RHEE			
		X1	Y1	Z1	X2	Y2	Z2	X3	Y3	Z3	X4	Y4	Z4	X5	Y5	Z5	X6	Y6	Z6	X7	Y7	Z7	X8	Y8	Z8	X9	Y9	Z9	X10	Y10	Z10	X11	Y11	Z11	X12	Y12	Z12	X13	Y13	Z13	X14	Y14	Z14	X15	Y15	Z15	X16	Y16	Z16	X17	Y17	Z17	X18	Y18	Z18	X19	Y19	Z19	X20	Y20	Z20	X21	Y21	Z21	X22	Y22	Z22	X23	Y23	Z23	X24	Y24	Z24	X25	Y25	Z25	X26	Y26	Z26	X27	Y27	Z27	X28	Y28	Z28	X29	Y29	Z29	X30	Y30	Z30	X31	Y31	Z31	X32	Y32	Z32	X33	Y33	Z33	X34	Y34	Z34	X35	Y35	Z35	X36	Y36	Z36	X37	Y37	Z37	X38	Y38	Z38	X39	Y39	Z39	X40	Y40	Z40	X41	Y41	Z41	X42	Y42	Z42	X43	Y43	Z43	X44	Y44	Z44	X45	Y45	Z45	X46	Y46	Z46	X47	Y47	Z47	X48	Y48	Z48	X49	Y49	Z49	X50	Y50	Z50	X51	Y51	Z51	X52	Y52	Z52	X53	Y53	Z53	

1	0	-1544.309326171875	1055.031982421875	-543.9971923828125	-1531.91357421875	1054.231323242188	-668.2177734375	-1537.91064453125	1090.794067382812	-603.8379516601562	-1281.029052734375	1300.091796875	-586.09423828125	-1572.689208984375	1246.392456054688	-614.8975219726562	-1507.404296875	1516.052124023438	-624.604248046875	-1308.664672851562	1412.877685546875	-599.3262329101562	-1585.0888671875	1342.68603515625	-518.8837890625	-1504.092529296875	1489.54638671875	-725.4407348632812	-1418.834594726562	1475.757446289062	-795.2841186523438	-1440.439819335938	1341.343505859375	-869.2354125976562	-1416.880493164062	1122.832397460938	-881.413818359375	-1472.978393554688	1107.572509765625	-814.5512084960938	-1303.580444335938	895.7474975585938	-831.3322143554688	-1377.10986328125	871.6325073242188	-881.6776733398438	-1396.87744140625	1012.908020019531	-891.2079467773438	-1288.65869140625	713.8577880859375	-802.0519409179688	-1353.675415039062	803.2833251953125	-874.1599731445312	-1285.39990234375	817.2953491210938	-848.3301391601562	-1464.799194335938	1499.5888671875	-438.332275390625	-1490.214477539062	1434.4482421875	-369.2747802734375	-1499.230834960938	1144.190795898438	-311.2017822265625	-1498.04443359375	1135.9169921875	-409.6976928710938	-1344.15771484375	927.27587890625	-323.5890502929688	-1418.541137695312	904.906982421875	-279.3734741210938	-1471.032348632812	1073.48779296875	-291.4833374023438	-1312.692626953125	741.1055297851562	-344.3778686523438	-1310.1875	837.64990234375	-313.2567749023438	-1384.075561523438	825.0009155273438	-278.6925354003906	-1472.680419921875	1674.794799804688	-558.010498046875	-1284.499389648438	1735.98095703125	-648.6649780273438	-1314.068603515625	1736.742797851562	-522.4515380859375	-1450.95556640625	1681.703979492188	-693.855224609375	-1417.295532226562	991.3317260742188	-775.0792236328125	-1399.99560546875	1014.856323242188	-403.0929870605469	-1312.374389648438	1042.29052734375	-453.6645202636719	-1297.706176757812	1027.08544921875	-710.5154418945312	-1416.75	493.8733825683594	-733.7799682617188	-1404.63623046875	635.7451171875	-763.2745971679688	-1511.565063476562	41.02733612060547	-738.2368774414062	-1460.77734375	273.8673400878906	-748.6849365234375	-1290.3681640625	38.78147888183594	-715.57421875	-1341.748291015625	39.02532196044922	-667.1754760742188	-1403.966186523438	33.39426040649414	-778.2586059570312	-1560.884033203125	37.92452621459961	-668.2984008789062	-1417.956420898438	513.4985961914062	-427.1640930175781	-1359.301635742188	780.503173828125	-392.8575744628906	-1509.764038085938	36.6301383972168	-438.4673767089844	-1411.302124023438	397.5158996582031	-445.0750732421875	-1282.799194335938	39.55992126464844	-455.9515686035156	-1336.227416992188	37.94263076782227	-504.0640563964844	-1399.586181640625	38.46117782592773	-394.5565795898438	-1554.046752929688	31.36723709106445	-509.1903381347656	
2	0.01	-1544.30029296875	1055.02587890625	-543.9841918945312	-1531.92138671875	1054.220581054688	-668.2097778320312	-1537.887939453125	1090.794921875	-603.8245849609375	-1281.041870117188	1300.064453125	-586.07568359375	-1572.681518554688	1246.415161132812	-614.9304809570312	-1507.358032226562	1516.060302734375	-624.6334228515625	-1308.637573242188	1412.856567382812	-599.3112182617188	-1585.0693359375	1342.712768554688	-518.9609375	-1504.000732421875	1489.545776367188	-725.5078125	-1418.727416992188	1475.745361328125	-795.3055419921875	-1440.318237304688	1341.308837890625	-869.24658203125	-1416.815795898438	1122.80419921875	-881.399658203125	-1472.918334960938	1107.549194335938	-814.5614624023438	-1303.513671875	895.7166748046875	-831.2562866210938	-1377.019775390625	871.5916137695312	-881.628662109375	-1396.795654296875	1012.875305175781	-891.1849365234375	-1288.693603515625	713.8408203125	-802.0208129882812	-1353.608642578125	803.2459106445312	-874.0951538085938	-1285.352416992188	817.2658081054688	-848.2703857421875	-1464.793823242188	1499.618530273438	-438.3802185058594	-1490.244750976562	1434.48486328125	-369.3136596679688	-1499.2587890625	1144.228271484375	-311.1864013671875	-1498.075561523438	1135.932373046875	-409.6815185546875	-1344.197998046875	927.3050537109375	-323.5131225585938	-1418.59814453125	904.959228515625	-279.3100891113281	-1471.047119140625	1073.526245117188	-291.4580383300781	-1312.782470703125	741.143310546875	-344.2400207519531	-1310.245483398438	837.6652221679688	-313.1800842285156	-1384.041625976562	825.031494140625	-278.5775756835938	-1472.60693359375	1674.83837890625	-558.07568359375	-1284.35205078125	1735.917236328125	-648.7686157226562	-1313.942749023438	1736.738525390625	-522.5550537109375	-1450.857788085938	1681.668701171875	-693.9585571289062	-1417.302368164062	991.3339233398438	-775.0637817382812	-1399.799438476562	1014.847412109375	-403.0105590820312	-1312.399047851562	1042.316650390625	-453.6238403320312	-1297.69677734375	1027.075317382812	-710.4926147460938	-1416.744384765625	493.8797302246094	-733.7576293945312	-1404.621459960938	635.7465209960938	-763.2545166015625	-1511.557861328125	41.03826522827148	-738.233154296875	-1460.791137695312	273.8846740722656	-748.6746826171875	-1290.362670898438	38.78267669677734	-715.5784912109375	-1341.743530273438	39.02365112304688	-667.1775512695312	-1403.963256835938	33.39506912231445	-778.2573852539062	-1560.854125976562	37.89647674560547	-668.2733154296875	-1417.93994140625	513.4931030273438	-427.1520385742188	-1359.300170898438	780.5210571289062	-392.8456420898438	-1509.74755859375	36.6370964050293	-438.4682006835938	-1411.286010742188	397.5131530761719	-445.0716857910156	-1282.798461914062	39.55741500854492	-455.9523620605469	-1336.228271484375	37.94373321533203	-504.0636901855469	-1399.583862304688	38.45894622802734	-394.5523681640625	-1554.0556640625	31.3770637512207	-509.1953430175781	
3	0.02	-1544.288452148438	1055.02001953125	-543.967041015625	-1531.929565429688	1054.20849609375	-668.1994018554688	-1537.85546875	1090.796752929688	-603.807373046875	-1281.054931640625	1300.032470703125	-586.0515747070312	-1572.66796875	1246.4404296875	-614.9715576171875	-1507.299926757812	1516.071166992188	-624.6715698242188	-1308.605102539062	1412.831909179688	-599.2922973632812	-1585.044311523438	1342.744384765625	-519.0557250976562	-1503.8828125	1489.546020507812	-725.5923461914062	-1418.597290039062	1475.729614257812	-795.33447265625	-1440.170166015625	1341.268798828125	-869.2611083984375	-1416.73388671875	1122.769653320312	-881.3829956054688	-1472.845092773438	1107.522216796875	-814.5747680664062	-1303.439331054688	895.6776733398438	-831.15771484375	-1376.90966796875	871.54296875	-881.5662841796875	-1396.688232421875	1012.833984375	-891.155517578125	-1288.744140625	713.81640625	-801.9819946289062	-1353.523193359375	803.19970703125	-874.0116577148438	-1285.291870117188	817.2300415039062	-848.1903686523438	-1464.790283203125	1499.65625	-438.4410705566406	-1490.285888671875	1434.531005859375	-369.3640747070312	-1499.292724609375	1144.274780273438	-311.1722106933594	-1498.111694335938	1135.95263671875	-409.6679992675781	-1344.246459960938	927.3424682617188	-323.42431640625	-1418.664672851562	905.0225219726562	-279.2328796386719	-1471.06787109375	1073.575561523438	-291.4317932128906	-1312.8759765625	741.1903686523438	-344.0751342773438	-1310.319213867188	837.6846923828125	-313.0901489257812	-1384.022583007812	825.07470703125	-278.4542236328125	-1472.502807617188	1674.902954101562	-558.1607666015625	-1284.169311523438	1735.83837890625	-648.8993530273438	-1313.781860351562	1736.729614257812	-522.6867065429688	-1450.728271484375	1681.628784179688	-694.0888671875	-1417.310913085938	991.3357543945312	-775.0451049804688	-1399.58349609375	1014.837219238281	-402.9163513183594	-1312.426635742188	1042.347534179688	-453.5765380859375	-1297.685546875	1027.0634765625	-710.4662475585938	-1416.741943359375	493.8872680664062	-733.7312622070312	-1404.609619140625	635.7479248046875	-763.2308959960938	-1511.551025390625	41.04778671264648	-738.2294311523438	-1460.799560546875	273.8969421386719	-748.6602783203125	-1290.357177734375	38.78385162353516	-715.5828857421875	-1341.739013671875	39.02323150634766	-667.1802368164062	-1403.9599609375	33.39583206176758	-778.2561645507812	-1560.821411132812	37.86411666870117	-668.2462768554688	-1417.917358398438	513.486328125	-427.1368103027344	-1359.293823242188	780.539794921875	-392.8306884765625	-1509.74267578125	36.64413833618164	-438.4648742675781	-1411.26416015625	397.5099182128906	-445.0665588378906	-1282.798583984375	39.55505752563477	-455.9530639648438	-1336.229370117188	37.94504165649414	-504.0632629394531	-1399.579833984375	38.45619583129883	-394.5478515625	-1554.063354492188	31.38495254516602	-509.1994934082031	
4	0.03	-1544.273681640625	1055.015014648438	-543.9463500976562	-1531.936767578125	1054.196044921875	-668.18701171875	-1537.813110351562	1090.799682617188	-603.7866821289062	-1281.06689453125	1299.998046875	-586.0228271484375	-1572.647583007812	1246.465942382812	-615.0189819335938	-1507.231689453125	1516.084106445312	-624.7177734375	-1308.568725585938	1412.805419921875	-599.270263671875	-1585.015258789062	1342.778442382812	-519.1630859375	-1503.7431640625	1489.54736328125	-725.6904907226562	-1418.451904296875	1475.710327148438	-795.370849609375	-1440.00390625	1341.226440429688	-869.2786865234375	-1416.637329101562	1122.73095703125	-881.364990234375	-1472.762329101562	1107.49365234375	-814.5907592773438	-1303.364501953125	895.6318359375	-831.0386962890625	-1376.785400390625	871.4896240234375	-881.492431640625	-1396.5576171875	1012.785522460938	-891.1207885742188	-1288.8115234375	713.782470703125	-801.9367065429688	-1353.421630859375	803.1463623046875	-873.9121704101562	-1285.220336914062	817.1901245117188	-848.09130859375	-1464.78955078125	1499.7001953125	-438.5124816894531	-1490.337646484375	1434.584716796875	-369.4246520996094	-1499.331176757812	1144.327758789062	-311.1624755859375	-1498.150268554688	1135.97705078125	-409.6608581542969	-1344.299560546875	927.3870849609375	-323.3294677734375	-1418.73583984375	905.0931396484375	-279.1470336914062	-1471.0947265625	1073.63427734375	-291.407958984375	-1312.960327148438	741.244873046875	-343.8939819335938	-1310.405029296875	837.7088012695312	-312.9931945800781	-1384.025024414062	825.1307373046875	-278.3328552246094	-1472.367553710938	1674.990600585938	-558.26318359375	-1283.961547851562	1735.7470703125	-649.0528564453125	-1313.592163085938	1736.714965820312	-522.8414306640625	-1450.570434570312	1681.588012695312	-694.240234375	-1417.319702148438	991.3363647460938	-775.0242919921875	-1399.368896484375	1014.826538085938	-402.8185119628906	-1312.454223632812	1042.380737304688	-453.5264587402344	-1297.672729492188	1027.050048828125	-710.4379272460938	-1416.744995117188	493.8953247070312	-733.7030639648438	-1404.6044921875	635.74951171875	-763.2056884765625	-1511.545532226562	41.05422973632812	-738.2262573242188	-1460.800537109375	273.901611328125	-748.642333984375	-1290.3525390625	38.78488540649414	-715.5867919921875	-1341.7353515625	39.02460479736328	-667.1832275390625	-1403.95703125	33.3963737487793	-778.255126953125	-1560.793823242188	37.83665084838867	-668.223388671875	-1417.889526367188	513.4785766601562	-427.1193237304688	-1359.283325195312	780.5571899414062	-392.8136596679688	-1509.750244140625	36.65028381347656	-438.45751953125	-1411.237426757812	397.5065307617188	-445.0595703125	-1282.800048828125	39.55316543579102	-455.95361328125	-1336.23046875	37.94639587402344	-504.0628356933594	-1399.574951171875	38.45254898071289	-394.5433654785156	-1554.06982421875	31.39060211181641	-509.2027282714844	
